# xmcd
#
# Track frame offsets: 
#        150
#        5868
#        20782
#        44923
#        61379
#        78272
#        100872
#        124257
#        148744
#        172104
#        190297
#        208287
#
# Disc length: 2915 seconds
#
# Revision: 0
# Processed by: cddbd v1.5.2PL0 Copyright (c) Steve Scherf et al.
# Submitted via: ExactAudioCopyFreeDBPlugin 1.0
#
DISCID=bc0b610c
DTITLE=Decosta Boyce - Electrick Soul
DYEAR=2017
DGENRE=Soul
TTITLE0=Intro
TTITLE1=Place I've Made
TTITLE2=No Holding Back
TTITLE3=I Can Already Tell
TTITLE4=Don't Hurt My Feelings
TTITLE5=I'd Do Anything
TTITLE6=Don't Go (Across the River)
TTITLE7=Good Music
TTITLE8=Givi2me
TTITLE9=Do It For You
TTITLE10=Outro
TTITLE11=Bonus Track (hidden)
EXTD=
EXTT0=
EXTT1=
EXTT2=
EXTT3=
EXTT4=
EXTT5=
EXTT6=
EXTT7=
EXTT8=
EXTT9=
EXTT10=
EXTT11=
PLAYORDER=
